<svg width="156" height="18" viewBox="0 0 156 18" fill="none" xmlns="http://www.w3.org/2000/svg">
<path d="M0 17.7605V0.239544H3.69779V14.7063H11.1958V17.7605H0Z" fill="#070809"/>
<path d="M29.5167 9C29.5167 10.9106 29.1552 12.5361 28.4322 13.8764C27.7148 15.2167 26.7356 16.2405 25.4944 16.9477C24.259 17.6492 22.8698 18 21.3269 18C19.7727 18 18.3778 17.6464 17.1424 16.9392C15.9069 16.2319 14.9305 15.2082 14.2132 13.8679C13.4958 12.5276 13.1371 10.9049 13.1371 9C13.1371 7.08935 13.4958 5.46388 14.2132 4.12358C14.9305 2.78327 15.9069 1.76236 17.1424 1.06084C18.3778 0.353612 19.7727 0 21.3269 0C22.8698 0 24.259 0.353612 25.4944 1.06084C26.7356 1.76236 27.7148 2.78327 28.4322 4.12358C29.1552 5.46388 29.5167 7.08935 29.5167 9ZM25.7677 9C25.7677 7.76236 25.5827 6.71863 25.2126 5.86882C24.8482 5.01901 24.333 4.37453 23.6669 3.93536C23.0008 3.4962 22.2208 3.27662 21.3269 3.27662C20.4331 3.27662 19.6531 3.4962 18.987 3.93536C18.3209 4.37453 17.8028 5.01901 17.4327 5.86882C17.0684 6.71863 16.8862 7.76236 16.8862 9C16.8862 10.2376 17.0684 11.2814 17.4327 12.1312C17.8028 12.981 18.3209 13.6255 18.987 14.0646C19.6531 14.5038 20.4331 14.7234 21.3269 14.7234C22.2208 14.7234 23.0008 14.5038 23.6669 14.0646C24.333 13.6255 24.8482 12.981 25.2126 12.1312C25.5827 11.2814 25.7677 10.2376 25.7677 9Z" fill="#070809"/>
<path d="M48.809 9C48.809 10.9106 48.4475 12.5361 47.7245 13.8764C47.0071 15.2167 46.0279 16.2405 44.7867 16.9477C43.5513 17.6492 42.1621 18 40.6192 18C39.065 18 37.6701 17.6464 36.4347 16.9392C35.1992 16.2319 34.2228 15.2082 33.5055 13.8679C32.7881 12.5276 32.4294 10.9049 32.4294 9C32.4294 7.08935 32.7881 5.46388 33.5055 4.12358C34.2228 2.78327 35.1992 1.76236 36.4347 1.06084C37.6701 0.353612 39.065 0 40.6192 0C42.1621 0 43.5513 0.353612 44.7867 1.06084C46.0279 1.76236 47.0071 2.78327 47.7245 4.12358C48.4475 5.46388 48.809 7.08935 48.809 9ZM45.06 9C45.06 7.76236 44.875 6.71863 44.5049 5.86882C44.1405 5.01901 43.6253 4.37453 42.9592 3.93536C42.2931 3.4962 41.5131 3.27662 40.6192 3.27662C39.7254 3.27662 38.9454 3.4962 38.2793 3.93536C37.6132 4.37453 37.0951 5.01901 36.725 5.86882C36.3607 6.71863 36.1785 7.76236 36.1785 9C36.1785 10.2376 36.3607 11.2814 36.725 12.1312C37.0951 12.981 37.6132 13.6255 38.2793 14.0646C38.9454 14.5038 39.7254 14.7234 40.6192 14.7234C41.5131 14.7234 42.2931 14.5038 42.9592 14.0646C43.6253 13.6255 44.1405 12.981 44.5049 12.1312C44.875 11.2814 45.06 10.2376 45.06 9Z" fill="#070809"/>
<path d="M52.0292 17.7605V0.239544H55.727V7.96483H55.9575L62.2515 0.239544H66.6837L60.1934 8.0846L66.7606 17.7605H62.3369L57.546 10.557L55.727 12.7814V17.7605H52.0292Z" fill="#070809"/>
<path d="M69.0904 17.7605V0.239544H80.6706V3.29373H72.7882V7.46863H79.902V10.5228H72.7882V17.7605H69.0904Z" fill="#070809"/>
<path d="M87.3366 0.239544V17.7605H83.6388V0.239544H87.3366Z" fill="#070809"/>
<path d="M105.489 0.239544V17.7605H102.295L94.6858 6.73289H94.5577V17.7605H90.8599V0.239544H94.1051L101.654 11.2586H101.808V0.239544H105.489Z" fill="#070809"/>
<path d="M115.225 17.7605H109.025V0.239544H115.276C117.035 0.239544 118.55 0.590304 119.819 1.29183C121.089 1.98764 122.065 2.98859 122.749 4.29468C123.437 5.60076 123.782 7.1635 123.782 8.98289C123.782 10.808 123.437 12.3764 122.749 13.6882C122.065 15 121.083 16.0067 119.802 16.7082C118.527 17.4097 117.001 17.7605 115.225 17.7605ZM112.723 14.5865H115.071C116.164 14.5865 117.084 14.3926 117.83 14.0048C118.581 13.6112 119.145 13.0038 119.521 12.1825C119.902 11.3555 120.093 10.289 120.093 8.98289C120.093 7.68821 119.902 6.63023 119.521 5.80894C119.145 4.98764 118.584 4.38308 117.838 3.99525C117.092 3.60741 116.173 3.4135 115.08 3.4135H112.723V14.5865Z" fill="#070809"/>
<path d="M127.002 17.7605V0.239544H138.787V3.29373H130.7V7.46863H138.181V10.5228H130.7V14.7063H138.821V17.7605H127.002Z" fill="#070809"/>
<path d="M142.208 17.7605V0.239544H149.108C150.429 0.239544 151.556 0.476236 152.49 0.94962C153.429 1.4173 154.144 2.08175 154.634 2.94297C155.129 3.79848 155.377 4.80513 155.377 5.96293C155.377 7.12643 155.126 8.12738 154.625 8.96578C154.124 9.79848 153.398 10.4373 152.447 10.8821C151.502 11.327 150.358 11.5494 149.014 11.5494H144.394V8.57224H148.417C149.123 8.57224 149.709 8.47529 150.176 8.28137C150.643 8.08745 150.99 7.79658 151.218 7.40875C151.451 7.02091 151.568 6.53897 151.568 5.96293C151.568 5.38118 151.451 4.89068 151.218 4.49145C150.99 4.09221 150.64 3.78992 150.167 3.5846C149.7 3.37357 149.111 3.26806 148.399 3.26806H145.906V17.7605H142.208ZM151.653 9.78707L156 17.7605H151.918L147.665 9.78707H151.653Z" fill="#070809"/>
</svg>
